<?xml version="1.0" ?><!-- Uploaded to: SVG Repo, www.svgrepo.com, Generator: SVG Repo Mixer Tools -->
<svg width="800px" height="800px" viewBox="0 0 64 64" id="filled" xmlns="http://www.w3.org/2000/svg"><defs><style>.cls-1{fill:#ffffff;}.cls-1,.cls-2,.cls-3{stroke:#000000;stroke-linecap:round;stroke-linejoin:round;stroke-width:2px;}.cls-2{fill:#81dee3;}.cls-3{fill:#bdc3c7;}</style></defs><title/><rect class="cls-1" height="6" transform="translate(68 70) rotate(-180)" width="36" x="16" y="32"/><path class="cls-1" d="M60,4V8H38a2,2,0,0,0-2,2v8H32V10a6,6,0,0,1,6-6Z"/><path class="cls-2" d="M19,46.75c0,1.6569.8954,2.25,2,2.25s2-.5931,2-2.25S21,43,21,43,19,45.0931,19,46.75Z"/><path class="cls-2" d="M32,46.75c0,1.6569.8954,2.25,2,2.25s2-.5931,2-2.25S34,43,34,43,32,45.0931,32,46.75Z"/><path class="cls-2" d="M25.5,56.75c0,1.6569.8954,2.25,2,2.25s2-.5931,2-2.25-2-3.75-2-3.75S25.5,55.0931,25.5,56.75Z"/><path class="cls-2" d="M38.5,56.75c0,1.6569.8954,2.25,2,2.25s2-.5931,2-2.25-2-3.75-2-3.75S38.5,55.0931,38.5,56.75Z"/><path class="cls-2" d="M45,46.75c0,1.6569.8954,2.25,2,2.25s2-.5931,2-2.25S47,43,47,43,45,45.0931,45,46.75Z"/><path class="cls-3" d="M19,32H49A15,15,0,0,0,34,17h0c-8.2843,0-15,5.0266-15,15Z"/></svg>